<svg width="204" height="44" viewBox="0 0 204 44" fill="none" xmlns="http://www.w3.org/2000/svg">
    <g clip-path="url(#clip0_2017_829)">
        <mask id="mask0_2017_829" style="mask-type:luminance" maskUnits="userSpaceOnUse" x="0" y="0"
            width="204" height="44">
            <path d="M204 0H0V44H204V0Z" fill="white" />
        </mask>
        <g mask="url(#mask0_2017_829)">
            <path
                d="M9.45287 43.6698H34.514C39.7346 43.6698 43.9668 39.4661 43.9668 34.2808V9.38901C43.9668 4.20363 39.7346 0 34.514 0H9.45287C4.23222 0 0 4.20363 0 9.38901V34.2808C0 39.4661 4.23222 43.6698 9.45287 43.6698Z"
                fill="#F9E600" />
            <path
                d="M34.6589 15.3077L21.9837 8.72852L19.4498 10.0443V15.7214L21.9837 14.4056L29.5391 18.3301L29.5448 29.9831H14.4284V22.404V13.6644L9.30859 16.319L9.31436 34.9419H34.6589V15.3077Z"
                fill="#183B56" />
            <path d="M19.4609 18.7896V25.001H24.4882V21.3982L19.4609 18.7896Z" fill="#183B56" />
            <path
                d="M75.2293 27.3857C75.2584 28.3671 75.0704 29.3429 74.6784 30.2443C74.2868 31.1458 73.7004 31.9509 72.9615 32.6031C71.433 33.9688 69.4343 34.6991 67.379 34.6429H56.688V9.60749H66.6271C68.6299 9.55687 70.5757 10.2751 72.0591 11.6129C72.7802 12.239 73.3542 13.015 73.7399 13.8858C74.1259 14.7566 74.3143 15.701 74.2923 16.6521C74.3221 17.6138 74.123 18.569 73.7109 19.4397C73.2984 20.3104 72.6849 21.0721 71.9203 21.6626C72.9582 22.2109 73.8188 23.0387 74.4044 24.0511C74.9896 25.0634 75.2755 26.2192 75.2293 27.3857ZM61.6808 14.2216V19.7378H66.6502C67.012 19.7411 67.3709 19.6715 67.7048 19.533C68.0387 19.3946 68.341 19.1902 68.593 18.9323C68.845 18.6744 69.0416 18.3684 69.1711 18.0327C69.3007 17.6971 69.3602 17.3388 69.3461 16.9797C69.3636 16.6199 69.3063 16.2605 69.1782 15.9236C69.0498 15.5868 68.8532 15.2797 68.6001 15.0216C68.3473 14.7634 68.0439 14.5597 67.7081 14.423C67.3727 14.2864 67.0127 14.2198 66.6502 14.2273L61.6808 14.2216ZM67.4021 30.0288C68.1675 29.9953 68.8901 29.6698 69.4194 29.1202C69.9491 28.5705 70.2447 27.8391 70.2447 27.0783C70.2447 26.3175 69.9491 25.5861 69.4194 25.0364C68.8901 24.4868 68.1675 24.1613 67.4021 24.1277H61.6808V30.0288H67.4021Z"
                fill="#E5E5E5" />
            <path
                d="M90.5313 16.7612H95.1592V34.6429H90.5313V32.6375C89.4145 34.3211 87.6384 35.1428 85.1684 35.1428C84.2586 35.173 83.3529 35.0138 82.509 34.6754C81.6651 34.3369 80.9016 33.8268 80.2683 33.1776C79.0071 31.856 78.3594 30.0633 78.3594 27.7419V16.7612H82.9873V27.1673C82.9873 29.5634 84.393 30.8505 86.551 30.8505C88.9633 30.8505 90.5138 29.3853 90.5138 26.4146L90.5313 16.7612Z"
                fill="#E5E5E5" />
            <path
                d="M98.8848 11.7911C98.8815 11.2269 99.0471 10.6744 99.3606 10.2039C99.674 9.7334 100.121 9.36617 100.646 9.14894C101.17 8.93171 101.748 8.87426 102.305 8.98392C102.862 9.09359 103.374 9.36543 103.775 9.76483C104.177 10.1642 104.449 10.6731 104.558 11.2268C104.668 11.7805 104.609 12.354 104.389 12.8744C104.169 13.3947 103.799 13.8383 103.324 14.1488C102.85 14.4594 102.293 14.6227 101.725 14.6182C100.975 14.6049 100.26 14.3026 99.7295 13.7751C99.1998 13.2476 98.8967 12.5362 98.8848 11.7911ZM99.4227 34.6431V16.7615H104.051V34.6431H99.4227Z"
                fill="#E5E5E5" />
            <path d="M108.315 34.6427V8.53271H112.943V34.6427H108.315Z" fill="#E5E5E5" />
            <path
                d="M130.853 9.60742H135.481V34.6429H130.853V32.5341C129.488 34.2866 127.544 35.1428 125.022 35.1428C123.848 35.1563 122.686 34.9209 121.611 34.4522C120.537 33.9835 119.575 33.2923 118.791 32.4249C117.144 30.5742 116.235 28.1894 116.235 25.7193C116.235 23.2492 117.144 20.8643 118.791 19.0137C119.575 18.1429 120.535 17.4473 121.609 16.9728C122.683 16.4983 123.847 16.2558 125.022 16.2613C127.544 16.2613 129.488 17.1175 130.853 18.87V9.60742ZM125.896 30.747C126.555 30.7684 127.212 30.6556 127.826 30.4155C128.44 30.1754 128.997 29.813 129.465 29.3507C129.93 28.8647 130.293 28.292 130.533 27.6657C130.773 27.0394 130.886 26.372 130.865 25.702C130.889 25.0369 130.778 24.3738 130.537 23.7526C130.296 23.1315 129.932 22.5652 129.465 22.0878C129.004 21.6142 128.448 21.2421 127.833 20.9957C127.219 20.7492 126.558 20.6338 125.896 20.657C125.229 20.6372 124.565 20.754 123.946 21.0002C123.327 21.2463 122.766 21.6166 122.297 22.0878C121.829 22.5641 121.462 23.1301 121.22 23.7515C120.979 24.3728 120.867 25.0364 120.892 25.702C120.87 26.3725 120.984 27.0404 121.225 27.6669C121.466 28.2933 121.831 28.8657 122.297 29.3507C122.773 29.8106 123.336 30.1711 123.954 30.4109C124.572 30.6507 125.232 30.765 125.896 30.747Z"
                fill="#E5E5E5" />
            <path
                d="M154.294 9.60742H159.229V34.6429H154.294V24.2713H144.934V34.6429H139.965V9.60742H144.934V19.548H154.294V9.60742Z"
                fill="#E5E5E5" />
            <path
                d="M175.572 16.7612H180.2V34.6429H175.572V32.6375C174.456 34.3211 172.68 35.1428 170.204 35.1428C169.295 35.1726 168.39 35.0132 167.547 34.6747C166.704 34.3363 165.942 33.8263 165.309 33.1776C164.049 31.856 163.4 30.0633 163.4 27.7419V16.7612H168.028V27.1673C168.028 29.5634 169.434 30.8505 171.592 30.8505C174.005 30.8505 175.555 29.3853 175.555 26.4146L175.572 16.7612Z"
                fill="#E5E5E5" />
            <path
                d="M201.137 19.0137C202.805 20.854 203.728 23.2428 203.728 25.7193C203.728 28.1958 202.805 30.5846 201.137 32.4249C200.363 33.2953 199.408 33.9889 198.338 34.458C197.269 34.9272 196.11 35.1608 194.941 35.1428C192.424 35.1428 190.475 34.2866 189.11 32.5341V34.6429H184.481V9.60742H189.11V18.87C190.475 17.1462 192.424 16.2613 194.941 16.2613C196.112 16.2525 197.271 16.4938 198.34 16.9686C199.409 17.4435 200.363 18.1409 201.137 19.0137ZM194.079 30.747C194.737 30.7683 195.393 30.6554 196.006 30.4153C196.619 30.1751 197.176 29.8129 197.643 29.3507C198.121 28.8725 198.495 28.302 198.743 27.6745C198.991 27.047 199.106 26.3757 199.083 25.702C199.11 25.0332 198.995 24.3661 198.747 23.7437C198.499 23.1213 198.123 22.5573 197.643 22.0878C196.687 21.1694 195.409 20.656 194.079 20.656C192.749 20.656 191.471 21.1694 190.515 22.0878C190.047 22.5641 189.68 23.1301 189.439 23.7515C189.197 24.3728 189.085 25.0364 189.11 25.702C189.088 26.3725 189.201 27.0404 189.443 27.6669C189.684 28.2933 190.049 28.8657 190.515 29.3507C190.982 29.8131 191.539 30.1756 192.151 30.4158C192.764 30.6559 193.42 30.7687 194.079 30.747Z"
                fill="#E5E5E5" />
        </g>
    </g>
    <defs>
        <clipPath id="clip0_2017_829">
            <rect width="204" height="44" fill="white" />
        </clipPath>
    </defs>
</svg>